<svg width="90" height="16" viewBox="0 0 90 16" fill="none" xmlns="http://www.w3.org/2000/svg">
<path d="M-0.000976562 0.291117C-0.000976562 0.130338 0.129361 0 0.29014 0H11.2759C11.4367 0 11.5671 0.130337 11.5671 0.291117V2.42204C11.5671 2.58282 11.4367 2.71316 11.2759 2.71316H0.29014C0.129361 2.71316 -0.000976562 2.58282 -0.000976562 2.42204V0.291117Z" fill="#040816"/>
<path d="M0.913086 3.61332C0.913086 3.45254 1.04342 3.3222 1.2042 3.3222H12.19C12.3508 3.3222 12.4811 3.45254 12.4811 3.61332V5.74425C12.4811 5.90503 12.3508 6.03536 12.19 6.03536H1.2042C1.04342 6.03536 0.913086 5.90503 0.913086 5.74425V3.61332Z" fill="#040816"/>
<path d="M0.913086 6.93479C0.913086 6.77401 1.04342 6.64368 1.2042 6.64368H12.19C12.3508 6.64368 12.4811 6.77401 12.4811 6.93479V9.06572C12.4811 9.2265 12.3508 9.35684 12.19 9.35684H1.2042C1.04342 9.35684 0.913086 9.2265 0.913086 9.06572V6.93479Z" fill="#040816"/>
<path d="M-0.000976562 10.2564C-0.000976562 10.0956 0.129361 9.96527 0.29014 9.96527H11.2759C11.4367 9.96527 11.5671 10.0956 11.5671 10.2564V12.3873C11.5671 12.5481 11.4367 12.6784 11.2759 12.6784H0.29014C0.129361 12.6784 -0.000976562 12.5481 -0.000976562 12.3873V10.2564Z" fill="#040816"/>
<path d="M0.913086 13.578C0.913086 13.4172 1.04342 13.2869 1.2042 13.2869H12.19C12.3508 13.2869 12.4811 13.4172 12.4811 13.578V15.7089C12.4811 15.8697 12.3508 16 12.19 16H1.2042C1.04342 16 0.913086 15.8697 0.913086 15.7089V13.578Z" fill="#040816"/>
<path d="M16.7557 10.1897C16.7557 13.2158 14.3026 15.6689 11.2767 15.6689C8.25071 15.6689 5.79766 13.2158 5.79766 10.1897C5.79766 7.16356 8.25071 4.71044 11.2767 4.71044C14.3026 4.71044 16.7557 7.16356 16.7557 10.1897Z" fill="#FAFAFA" stroke="#040816" stroke-width="0.634389"/>
<g clip-path="url(#clip0_3919_1443)">
<path d="M12.7031 11.1319L13.6547 10.1803L12.7031 9.2287" stroke="#040816" stroke-width="0.475791" stroke-linecap="round" stroke-linejoin="round"/>
<path d="M9.84807 9.2287L8.89648 10.1803L9.84807 11.1319" stroke="#040816" stroke-width="0.475791" stroke-linecap="round" stroke-linejoin="round"/>
<path d="M11.8701 8.27716L10.6807 12.0835" stroke="#040816" stroke-width="0.475791" stroke-linecap="round" stroke-linejoin="round"/>
</g>
<path d="M21.9619 13.1794V2.66669H28.6966V4.26309H23.8663V7.11712H28.2346V8.71353H23.8663V13.1794H21.9619Z" fill="#040816"/>
<path d="M34.8808 9.86335V5.29486H36.739V13.1794H34.9372V11.778H34.8551C34.6772 12.2195 34.3846 12.5805 33.9773 12.8611C33.5735 13.1417 33.0756 13.282 32.4836 13.282C31.9669 13.282 31.51 13.1674 31.113 12.9381C30.7195 12.7054 30.4115 12.3683 30.1891 11.9269C29.9666 11.482 29.8554 10.9447 29.8554 10.3151V5.29486H31.7136V10.0276C31.7136 10.5272 31.8505 10.9242 32.1243 11.2185C32.398 11.5128 32.7574 11.66 33.2022 11.66C33.476 11.66 33.7412 11.5932 33.9979 11.4598C34.2545 11.3263 34.465 11.1278 34.6292 10.8643C34.7969 10.5974 34.8808 10.2637 34.8808 9.86335Z" fill="#040816"/>
<path d="M40.508 8.55953V13.1794H38.6498V5.29486H40.4259V6.6346H40.5183C40.6996 6.19315 40.9888 5.84239 41.3858 5.58231C41.7861 5.32223 42.2806 5.19219 42.8692 5.19219C43.4134 5.19219 43.8873 5.30854 44.2911 5.54125C44.6984 5.77395 45.0132 6.11102 45.2356 6.55248C45.4615 6.99393 45.5727 7.52948 45.5693 8.15915V13.1794H43.7111V8.4466C43.7111 7.9196 43.5742 7.50724 43.3004 7.20952C43.0301 6.91179 42.6554 6.76293 42.1763 6.76293C41.8512 6.76293 41.562 6.8348 41.3088 6.97853C41.0589 7.11883 40.8622 7.32245 40.7184 7.58937C40.5781 7.85629 40.508 8.17968 40.508 8.55953Z" fill="#040816"/>
<path d="M50.3842 13.318C49.7648 13.318 49.2104 13.1588 48.721 12.8406C48.2317 12.5223 47.845 12.0603 47.5609 11.4546C47.2769 10.8489 47.1349 10.1132 47.1349 9.24737C47.1349 8.37132 47.2786 7.63215 47.5661 7.02986C47.857 6.42415 48.2488 5.9673 48.7416 5.65931C49.2343 5.3479 49.7836 5.19219 50.3893 5.19219C50.8513 5.19219 51.2311 5.2709 51.5289 5.42832C51.8266 5.58231 52.0627 5.76882 52.2372 5.98783C52.4118 6.20342 52.5469 6.40704 52.6428 6.59867H52.7198V2.66669H54.5831V13.1794H52.7557V11.9371H52.6428C52.5469 12.1288 52.4083 12.3324 52.227 12.548C52.0456 12.7602 51.8061 12.9415 51.5083 13.0921C51.2106 13.2427 50.8359 13.318 50.3842 13.318ZM50.9026 11.7934C51.2962 11.7934 51.6315 11.6873 51.9087 11.4752C52.1859 11.2596 52.3964 10.9601 52.5401 10.5769C52.6838 10.1936 52.7557 9.747 52.7557 9.23711C52.7557 8.72722 52.6838 8.28405 52.5401 7.90762C52.3998 7.53119 52.191 7.2386 51.9139 7.02986C51.6401 6.82111 51.303 6.71674 50.9026 6.71674C50.4885 6.71674 50.1429 6.82453 49.8657 7.04012C49.5885 7.25572 49.3798 7.55344 49.2395 7.93329C49.0992 8.31314 49.029 8.74775 49.029 9.23711C49.029 9.72989 49.0992 10.1696 49.2395 10.5563C49.3832 10.9396 49.5937 11.2425 49.8709 11.4649C50.1515 11.6839 50.4954 11.7934 50.9026 11.7934Z" fill="#040816"/>
<path d="M62.7948 7.37891L61.1009 7.5637C61.053 7.3926 60.9692 7.23176 60.8494 7.08119C60.733 6.93062 60.5756 6.80913 60.3771 6.71674C60.1787 6.62434 59.9357 6.57814 59.6482 6.57814C59.2615 6.57814 58.9364 6.66198 58.6729 6.82966C58.4128 6.99735 58.2845 7.21465 58.2879 7.48157C58.2845 7.71085 58.3684 7.89736 58.5395 8.04109C58.714 8.18481 59.0015 8.30288 59.4018 8.39527L60.7467 8.68273C61.4927 8.84357 62.0471 9.09851 62.4099 9.44757C62.776 9.79662 62.9608 10.2535 62.9642 10.8181C62.9608 11.3143 62.8154 11.7523 62.5279 12.1322C62.2439 12.5086 61.8486 12.8029 61.3422 13.0151C60.8357 13.2273 60.2539 13.3334 59.5969 13.3334C58.6319 13.3334 57.855 13.1315 57.2664 12.7276C56.6778 12.3204 56.3271 11.7541 56.2141 11.0286L58.0262 10.854C58.1083 11.2099 58.2828 11.4786 58.5497 11.66C58.8167 11.8413 59.164 11.932 59.5918 11.932C60.0332 11.932 60.3874 11.8413 60.6543 11.66C60.9247 11.4786 61.0598 11.2544 61.0598 10.9875C61.0598 10.7617 60.9726 10.5751 60.7981 10.428C60.6269 10.2808 60.36 10.1679 59.9973 10.0892L58.6524 9.80689C57.8961 9.64947 57.3366 9.38426 56.9739 9.01125C56.6111 8.63482 56.4315 8.15915 56.4349 7.58424C56.4315 7.0983 56.5632 6.67738 56.8301 6.32148C57.1005 5.96216 57.4752 5.68497 57.9543 5.48991C58.4368 5.29143 58.9929 5.19219 59.6226 5.19219C60.5465 5.19219 61.2737 5.38896 61.8041 5.7825C62.338 6.17604 62.6682 6.70818 62.7948 7.37891Z" fill="#040816"/>
<path d="M67.9357 13.3334C67.1657 13.3334 66.4984 13.164 65.9338 12.8252C65.3691 12.4864 64.9311 12.0124 64.6197 11.4033C64.3117 10.7942 64.1577 10.0824 64.1577 9.26791C64.1577 8.45345 64.3117 7.73994 64.6197 7.12739C64.9311 6.51483 65.3691 6.03916 65.9338 5.70037C66.4984 5.36159 67.1657 5.19219 67.9357 5.19219C68.7057 5.19219 69.373 5.36159 69.9376 5.70037C70.5023 6.03916 70.9386 6.51483 71.2466 7.12739C71.558 7.73994 71.7137 8.45345 71.7137 9.26791C71.7137 10.0824 71.558 10.7942 71.2466 11.4033C70.9386 12.0124 70.5023 12.4864 69.9376 12.8252C69.373 13.164 68.7057 13.3334 67.9357 13.3334ZM67.946 11.8447C68.3635 11.8447 68.7125 11.7301 68.9931 11.5008C69.2737 11.2681 69.4825 10.9567 69.6194 10.5666C69.7597 10.1765 69.8298 9.74187 69.8298 9.26277C69.8298 8.78026 69.7597 8.34394 69.6194 7.95382C69.4825 7.56028 69.2737 7.24716 68.9931 7.01446C68.7125 6.78176 68.3635 6.6654 67.946 6.6654C67.5182 6.6654 67.1623 6.78176 66.8783 7.01446C66.5977 7.24716 66.3872 7.56028 66.2469 7.95382C66.11 8.34394 66.0416 8.78026 66.0416 9.26277C66.0416 9.74187 66.11 10.1765 66.2469 10.5666C66.3872 10.9567 66.5977 11.2681 66.8783 11.5008C67.1623 11.7301 67.5182 11.8447 67.946 11.8447Z" fill="#040816"/>
<path d="M75.1491 2.66669V13.1794H73.2909V2.66669H75.1491Z" fill="#040816"/>
<path d="M84.1026 5.29486L81.2947 13.1794H79.2415L76.4336 5.29486H78.415L80.227 11.1518H80.3092L82.1263 5.29486H84.1026Z" fill="#040816"/>
<path d="M85.3884 13.1794V5.29486H87.1901V6.60894H87.2723C87.416 6.1538 87.6624 5.80304 88.0115 5.55665C88.3639 5.30683 88.766 5.18193 89.2177 5.18193C89.3204 5.18193 89.435 5.18706 89.5617 5.19733C89.6917 5.20417 89.7995 5.21615 89.8851 5.23326V6.94259C89.8063 6.91522 89.6814 6.89126 89.5103 6.87073C89.3427 6.84677 89.1801 6.8348 89.0227 6.8348C88.6839 6.8348 88.3793 6.90837 88.109 7.05552C87.8421 7.19925 87.6316 7.39944 87.4776 7.6561C87.3236 7.91276 87.2466 8.20877 87.2466 8.54413V13.1794H85.3884Z" fill="#040816"/>
<defs>
<clipPath id="clip0_3919_1443">
<rect width="5.7095" height="5.7095" fill="white" transform="translate(8.4209 7.32556)"/>
</clipPath>
</defs>
</svg>
